<svg width="179.785" height="93.789" viewBox="0 0 179.785 93.789" xmlns="http://www.w3.org/2000/svg"><g id="svgGroup" stroke-linecap="round" fill-rule="evenodd" font-size="9pt" stroke="#000" stroke-width="0.25mm" fill="#ffffff" style="stroke:#000;stroke-width:0.25mm;fill:#ffffff"><path d="M 73.008 89.004 L 70.82 61.934 A 276.126 276.126 0 0 1 70.432 61.088 Q 69.958 60.053 69.626 59.301 A 80.422 80.422 0 0 1 69.521 59.063 A 5.47 5.47 0 0 1 69.152 57.806 Q 69.051 57.231 69.044 56.577 A 9.312 9.312 0 0 1 69.043 56.465 A 7.713 7.713 0 0 1 69.162 55.085 A 6.362 6.362 0 0 1 69.385 54.209 A 6.666 6.666 0 0 0 69.691 52.721 A 8.198 8.198 0 0 0 69.727 51.954 A 77.969 77.969 0 0 0 69.654 48.526 A 62.818 62.818 0 0 0 69.521 46.348 Q 69.316 43.75 69.043 40.606 A 0.671 0.671 0 0 0 68.868 40.34 Q 68.624 40.102 68.086 39.922 A 11.671 11.671 0 0 1 67.231 39.598 Q 66.794 39.413 66.324 39.178 A 19.01 19.01 0 0 1 66.309 39.17 A 4.772 4.772 0 0 1 65.051 38.248 A 5.956 5.956 0 0 1 64.6 37.735 A 3.167 3.167 0 0 1 64.079 36.72 Q 63.848 35.986 63.848 35 A 5.973 5.973 0 0 1 63.997 33.634 A 4.522 4.522 0 0 1 64.6 32.198 A 26.831 26.831 0 0 1 66.172 30.01 A 26.831 26.831 0 0 0 67.744 27.823 A 4.614 4.614 0 0 0 68.407 26.091 A 6.207 6.207 0 0 0 68.496 25.02 Q 68.496 24.336 68.359 22.491 A 92.153 92.153 0 0 1 68.198 19.731 A 107.445 107.445 0 0 1 68.154 18.594 A 1142.286 1142.286 0 0 0 68.086 16.595 A 975.58 975.58 0 0 0 68.018 14.698 A 213.869 213.869 0 0 1 67.989 13.896 Q 67.959 12.974 67.951 12.451 A 20.84 20.84 0 0 1 67.949 12.168 L 67.949 11.895 L 67.949 11.621 A 152.792 152.792 0 0 0 68.21 11.032 Q 68.557 10.242 68.803 9.653 A 51.895 51.895 0 0 0 68.838 9.571 Q 69.073 9.007 69.34 8.637 A 2.431 2.431 0 0 1 69.59 8.34 A 2.226 2.226 0 0 1 70.138 7.944 Q 70.384 7.815 70.681 7.726 A 2.985 2.985 0 0 1 70.684 7.725 A 4.16 4.16 0 0 1 71.228 7.604 Q 71.76 7.52 72.461 7.52 A 12.036 12.036 0 0 1 73.957 7.606 Q 75.717 7.828 76.699 8.614 A 6.673 6.673 0 0 1 77.861 9.793 A 5.437 5.437 0 0 1 78.613 11.143 A 13.028 13.028 0 0 1 79.036 12.444 Q 79.224 13.155 79.297 13.809 A 4.446 4.446 0 0 0 79.369 14.264 Q 79.545 15.067 79.98 15.176 L 89.824 6.563 L 90.371 6.563 A 41.315 41.315 0 0 1 100.488 1.709 A 36.507 36.507 0 0 1 111.699 0 Q 113.477 0 116.006 0.411 A 18.768 18.768 0 0 1 120.791 1.846 A 12.783 12.783 0 0 1 123.57 3.547 A 11.38 11.38 0 0 1 124.619 4.512 A 5.604 5.604 0 0 1 126.18 8.197 A 7.387 7.387 0 0 1 126.191 8.614 Q 126.191 11.348 125.508 14.219 A 37.437 37.437 0 0 1 123.662 19.893 Q 122.5 22.696 120.928 25.225 A 26.977 26.977 0 0 1 119.199 27.7 A 20.891 20.891 0 0 1 117.578 29.532 Q 116.895 31.036 108.828 37.188 Q 100.762 43.34 84.766 55.508 L 150.391 59.61 A 30.733 30.733 0 0 0 151.345 59.689 Q 152.342 59.757 153.697 59.801 A 110.26 110.26 0 0 0 154.15 59.815 Q 156.543 59.883 158.799 60.293 A 10.61 10.61 0 0 1 161.082 60.967 A 8.707 8.707 0 0 1 162.695 61.866 A 3.776 3.776 0 0 1 164.278 64.521 A 5.748 5.748 0 0 1 164.336 65.352 A 7.233 7.233 0 0 1 164.296 66.137 Q 164.254 66.521 164.168 66.843 A 3.169 3.169 0 0 1 163.994 67.334 A 4.893 4.893 0 0 1 163.644 67.979 A 3.603 3.603 0 0 1 163.174 68.565 Q 162.695 69.043 162.08 69.454 A 4.689 4.689 0 0 0 161.374 70.036 A 6.084 6.084 0 0 0 160.918 70.547 L 158.594 70.547 L 156.27 70.547 A 142.627 142.627 0 0 1 152.053 70.06 A 159.979 159.979 0 0 1 150.596 69.864 A 6678.975 6678.975 0 0 1 148.257 69.537 Q 147.226 69.393 146.102 69.235 A 11578.29 11578.29 0 0 1 143.76 68.907 A 204.884 204.884 0 0 0 140.655 68.496 Q 137.915 68.155 134.668 67.813 Q 131.096 67.437 126.555 67.126 A 364.609 364.609 0 0 0 122.227 66.856 A 463.406 463.406 0 0 0 116.456 66.567 Q 113.911 66.455 111.132 66.357 A 807.45 807.45 0 0 0 105.342 66.172 A 630.467 630.467 0 0 0 96.319 65.985 Q 90.14 65.899 82.988 65.899 Q 82.871 65.899 82.704 66.199 A 2.833 2.833 0 0 0 82.646 66.309 Q 82.441 66.719 82.441 66.993 A 57.984 57.984 0 0 0 83.33 77.178 A 56.442 56.442 0 0 1 84.219 87.09 A 10.485 10.485 0 0 1 84.167 88.099 Q 84.116 88.628 84.014 89.209 A 7.322 7.322 0 0 1 83.262 91.397 A 5.897 5.897 0 0 1 82.381 92.645 A 5.268 5.268 0 0 1 81.895 93.106 A 2.916 2.916 0 0 1 80.433 93.747 A 3.934 3.934 0 0 1 79.844 93.789 A 4.839 4.839 0 0 1 79.132 93.733 Q 78.769 93.679 78.365 93.573 A 9.732 9.732 0 0 1 77.93 93.448 A 8.133 8.133 0 0 1 76.068 92.588 A 9.239 9.239 0 0 1 75.811 92.422 A 12.143 12.143 0 0 1 74.094 91.046 A 11.194 11.194 0 0 1 73.965 90.918 A 3.345 3.345 0 0 1 73.221 89.821 A 3.177 3.177 0 0 1 73.008 89.004 Z M 26.66 80.391 L 27.207 79.844 A 1.796 1.796 0 0 1 27.208 79.793 Q 27.215 79.569 27.268 78.612 A 373.85 373.85 0 0 1 27.275 78.477 Q 27.344 77.246 27.344 75.743 L 27.344 72.666 L 27.344 70.137 A 788.24 788.24 0 0 0 27.002 46.827 A 788.24 788.24 0 0 1 26.66 23.516 L 26.66 4.239 A 5.708 5.708 0 0 1 27.069 2.996 Q 27.537 2.005 28.369 1.436 A 5.075 5.075 0 0 1 30.665 0.593 A 6.516 6.516 0 0 1 31.445 0.547 A 9.159 9.159 0 0 1 35.147 1.342 A 10.454 10.454 0 0 1 35.205 1.368 A 4.069 4.069 0 0 1 37.473 3.835 A 5.4 5.4 0 0 1 37.598 4.239 A 567.302 567.302 0 0 0 37.525 13.314 A 540.795 540.795 0 0 0 38.076 37.871 A 737.651 737.651 0 0 1 38.828 71.368 L 38.828 77.178 A 45.246 45.246 0 0 1 38.213 84.629 Q 37.598 88.321 35.889 91.055 A 5.918 5.918 0 0 1 34.204 92.851 Q 32.821 93.789 30.898 93.789 A 3.045 3.045 0 0 1 30.708 93.783 Q 30.476 93.768 30.146 93.721 A 19.575 19.575 0 0 0 29.979 93.698 Q 29.725 93.664 29.6 93.655 A 1.06 1.06 0 0 0 29.531 93.653 Q 28.97 93.428 27.673 92.652 A 57.913 57.913 0 0 1 27.07 92.286 Q 25.615 91.39 25.168 90.861 A 1.122 1.122 0 0 1 25.02 90.645 L 2.461 65.352 Q 0.839 63.595 0.42 62.172 A 4.121 4.121 0 0 1 0.41 62.139 Q 0.034 60.823 0.003 59.104 A 17.317 17.317 0 0 1 0 58.789 A 6.632 6.632 0 0 1 0.834 55.59 A 7.907 7.907 0 0 1 0.957 55.371 A 3.157 3.157 0 0 1 3.256 53.8 A 4.935 4.935 0 0 1 4.102 53.731 A 3.032 3.032 0 0 1 5.181 53.917 A 2.725 2.725 0 0 1 6.152 54.551 A 7.735 7.735 0 0 1 7.182 55.839 A 9.434 9.434 0 0 1 7.588 56.534 Q 8.203 57.696 8.75 58.858 A 8.426 8.426 0 0 0 9.217 59.723 Q 9.482 60.15 9.774 60.483 A 4.557 4.557 0 0 0 9.98 60.704 Q 10.938 61.524 13.33 64.258 A 224.489 224.489 0 0 1 17.569 69.253 A 248.126 248.126 0 0 1 18.184 70 A 1848.127 1848.127 0 0 1 20.542 72.889 A 1418.143 1418.143 0 0 1 22.695 75.538 Q 24.746 78.067 25.02 78.614 A 9.15 9.15 0 0 1 25.173 78.772 Q 25.417 79.028 25.799 79.457 A 57.666 57.666 0 0 1 25.84 79.502 Q 26.387 80.118 26.66 80.391 Z M 79.98 29.532 L 79.98 31.719 Q 79.98 35.137 80.117 38.145 A 185.56 185.56 0 0 0 80.288 41.289 A 239.012 239.012 0 0 0 80.527 44.707 L 80.938 44.707 A 0.311 0.311 0 0 0 81.01 44.696 Q 81.182 44.653 81.607 44.441 A 11.826 11.826 0 0 0 81.621 44.434 A 5.368 5.368 0 0 0 81.884 44.291 Q 82.523 43.923 84.081 42.905 A 177.707 177.707 0 0 0 84.355 42.725 A 207.291 207.291 0 0 0 85.594 41.905 Q 87.671 40.52 91.055 38.213 A 7761.861 7761.861 0 0 0 93.541 36.517 Q 96.343 34.605 100.127 32.02 A 29697.253 29697.253 0 0 0 103.77 29.532 Q 105.41 28.575 107.324 26.25 Q 109.238 23.926 110.879 21.192 A 42.077 42.077 0 0 0 112.876 17.464 A 36.185 36.185 0 0 0 113.613 15.791 A 20.019 20.019 0 0 0 114.19 14.212 Q 114.69 12.624 114.706 11.43 A 5.876 5.876 0 0 0 114.707 11.348 A 2.078 2.078 0 0 0 114.645 10.816 Q 114.464 10.136 113.758 10.01 A 1.99 1.99 0 0 0 113.408 9.981 L 111.152 9.981 A 14.692 14.692 0 0 0 109.253 10.112 Q 107.965 10.28 106.504 10.664 A 17.686 17.686 0 0 0 104.504 11.332 Q 103.554 11.709 102.499 12.225 A 42.035 42.035 0 0 0 100.283 13.399 Q 97.676 14.875 94.36 17.272 A 117.948 117.948 0 0 0 91.67 19.278 A 99.594 99.594 0 0 0 87.698 22.505 Q 85.936 24.007 84.007 25.764 A 212.783 212.783 0 0 0 79.98 29.532 Z M 57.148 87.227 L 57.148 87.637 Q 57.148 89.961 55.576 91.807 A 5.126 5.126 0 0 1 51.826 93.64 A 6.973 6.973 0 0 1 51.406 93.653 A 4.395 4.395 0 0 1 49.681 93.28 Q 49.048 93.012 48.399 92.549 A 9.695 9.695 0 0 1 47.715 92.012 Q 46.315 90.812 45.939 89.466 A 3.731 3.731 0 0 1 45.801 88.457 A 5.041 5.041 0 0 1 46.677 85.634 A 6.782 6.782 0 0 1 47.236 84.903 A 5.315 5.315 0 0 1 48.38 83.903 A 4.035 4.035 0 0 1 50.586 83.262 A 7.161 7.161 0 0 1 52.204 83.435 A 4.949 4.949 0 0 1 54.346 84.493 Q 55.781 85.723 57.148 87.227 Z M 179.785 87.227 L 179.785 87.637 Q 179.785 89.961 178.213 91.807 A 5.126 5.126 0 0 1 174.462 93.64 A 6.973 6.973 0 0 1 174.043 93.653 A 4.395 4.395 0 0 1 172.318 93.28 Q 171.685 93.012 171.036 92.549 A 9.695 9.695 0 0 1 170.352 92.012 Q 168.952 90.812 168.576 89.466 A 3.731 3.731 0 0 1 168.438 88.457 A 5.041 5.041 0 0 1 169.314 85.634 A 6.782 6.782 0 0 1 169.873 84.903 A 5.315 5.315 0 0 1 171.017 83.903 A 4.035 4.035 0 0 1 173.223 83.262 A 7.161 7.161 0 0 1 174.841 83.435 A 4.949 4.949 0 0 1 176.982 84.493 Q 178.418 85.723 179.785 87.227 Z" vector-effect="non-scaling-stroke"/></g></svg>