{
  "extensionsUsed": ["KHR_materials_specular", "KHR_materials_ior"],
  "accessors": [
    {
      "bufferView": 0,
      "byteOffset": 0,
      "componentType": 5123,
      "count": 3186,
      "type": "SCALAR",
      "max": [3129],
      "min": [0]
    },
    {
      "bufferView": 1,
      "byteOffset": 0,
      "componentType": 5126,
      "count": 3130,
      "type": "VEC3",
      "max": [2.144460678100586, 1.5536479949951172, 6.237096786499023],
      "min": [-2.55553936958313, -3.246351957321167, -3.1629037857055664],
      "name": "POSITION"
    },
    {
      "bufferView": 1,
      "byteOffset": 12,
      "componentType": 5126,
      "count": 3130,
      "type": "VEC2",
      "max": [0.9941409826278687, 0.5],
      "min": [0.0019531298894435167, 0.5],
      "name": "TEXCOORD_0"
    },
    {
      "bufferView": 1,
      "byteOffset": 20,
      "componentType": 5126,
      "count": 3130,
      "type": "VEC3",
      "max": [1.0000044107437134, 1.0000044107437134, 1.0000044107437134],
      "min": [-1.0000044107437134, -1.0000044107437134, -1.0000044107437134],
      "name": "NORMAL"
    }
  ],
  "asset": { "generator": "Aspose.3D 22.12", "version": "2.0" },
  "buffers": [
    {
      "uri": "data:application/octet-stream;base64,",
      "byteLength": 108332
    }
  ],
  "bufferViews": [
    { "buffer": 0, "byteOffset": 0, "byteLength": 6372, "target": 34963 },
    {
      "buffer": 0,
      "byteOffset": 6376,
      "byteLength": 101952,
      "byteStride": 32,
      "target": 34962
    }
  ],
  "images": [
    {
      "uri": "data:image/png;base64,"
    }
  ],
  "materials": [
    {
      "name": "palette",
      "extensions": {
        "KHR_materials_specular": { "specularColorFactor": [0, 0, 0] },
        "KHR_materials_ior": { "ior": 1.4500000476837158 }
      },
      "pbrMetallicRoughness": {
        "baseColorFactor": [1, 1, 1, 1],
        "baseColorTexture": { "index": 0, "texCoord": 0 },
        "metallicFactor": 0,
        "roughnessFactor": 1
      },
      "emissiveFactor": [0, 0, 0],
      "alphaMode": "OPAQUE",
      "doubleSided": true
    }
  ],
  "meshes": [
    {
      "primitives": [
        {
          "attributes": { "POSITION": 1, "TEXCOORD_0": 2, "NORMAL": 3 },
          "indices": 0,
          "material": 0,
          "mode": 4
        }
      ]
    }
  ],
  "nodes": [
    {
      "matrix": [
        1, 0, 0, 0, 0, -3.029462689596585e-7, 0.9999999657714298, 0, 0,
        -0.9999999657714298, -3.029462689596585e-7, 0, 0.30000001192092896,
        6.199999809265137, 0.699999988079071, 1
      ],
      "mesh": 0,
      "name": "myvoxel"
    }
  ],
  "samplers": [
    { "magFilter": 9729, "minFilter": 9987, "wrapS": 10497, "wrapT": 10497 }
  ],
  "scene": 0,
  "scenes": [{ "nodes": [0] }],
  "textures": [{ "sampler": 0, "source": 0, "name": "" }]
}
